<svg width="163" height="93" viewBox="0 0 163 93" fill="none" xmlns="http://www.w3.org/2000/svg">
<g filter="url(#filter0_d_8_10)">
<path d="M24.6094 28.375C24.6094 27.5781 24.5156 26.875 24.3281 26.2656C24.1406 25.6406 23.8125 25.0781 23.3438 24.5781C22.875 24.0781 22.2188 23.6016 21.375 23.1484C20.5312 22.6953 19.4609 22.2344 18.1641 21.7656C16.7578 21.2656 15.4844 20.7109 14.3438 20.1016C13.2031 19.4766 12.2266 18.7656 11.4141 17.9688C10.6172 17.1719 10 16.2578 9.5625 15.2266C9.125 14.1953 8.90625 13.0156 8.90625 11.6875C8.90625 10.3594 9.13281 9.13281 9.58594 8.00781C10.0547 6.88281 10.7109 5.90625 11.5547 5.07812C12.4141 4.23438 13.4453 3.57812 14.6484 3.10938C15.8516 2.64062 17.1953 2.40625 18.6797 2.40625C20.8984 2.40625 22.7656 2.89844 24.2812 3.88281C25.8125 4.85156 26.9688 6.125 27.75 7.70312C28.5312 9.26563 28.9219 10.9375 28.9219 12.7188H24.6094C24.6094 11.4375 24.3984 10.3047 23.9766 9.32031C23.5703 8.32031 22.9297 7.53906 22.0547 6.97656C21.1953 6.39844 20.0703 6.10938 18.6797 6.10938C17.4297 6.10938 16.3984 6.35156 15.5859 6.83594C14.7891 7.32031 14.1953 7.97656 13.8047 8.80469C13.4297 9.63281 13.2422 10.5781 13.2422 11.6406C13.2422 12.3594 13.3672 13.0156 13.6172 13.6094C13.8672 14.1875 14.25 14.7266 14.7656 15.2266C15.2969 15.7266 15.9531 16.1875 16.7344 16.6094C17.5312 17.0312 18.4688 17.4375 19.5469 17.8281C21.2188 18.375 22.6484 18.9844 23.8359 19.6562C25.0234 20.3281 25.9922 21.0859 26.7422 21.9297C27.4922 22.7578 28.0391 23.7031 28.3828 24.7656C28.7422 25.8125 28.9219 27 28.9219 28.3281C28.9219 29.7188 28.6875 30.9766 28.2188 32.1016C27.7656 33.2266 27.1016 34.1875 26.2266 34.9844C25.3516 35.7812 24.2969 36.3984 23.0625 36.8359C21.8281 37.2578 20.4375 37.4688 18.8906 37.4688C17.5469 37.4688 16.2266 37.25 14.9297 36.8125C13.6484 36.375 12.4844 35.7188 11.4375 34.8438C10.3906 33.9688 9.55469 32.8906 8.92969 31.6094C8.30469 30.3125 7.99219 28.8125 7.99219 27.1094H12.3047C12.3047 28.2812 12.4766 29.2891 12.8203 30.1328C13.1641 30.9609 13.6406 31.6484 14.25 32.1953C14.8594 32.7422 15.5547 33.1484 16.3359 33.4141C17.1328 33.6641 17.9844 33.7891 18.8906 33.7891C20.1406 33.7891 21.1875 33.5703 22.0312 33.1328C22.8906 32.6953 23.5312 32.0703 23.9531 31.2578C24.3906 30.4453 24.6094 29.4844 24.6094 28.375ZM42.7969 33.9297C43.625 33.9297 44.375 33.7656 45.0469 33.4375C45.7344 33.0938 46.2969 32.5625 46.7344 31.8438C47.1719 31.1094 47.4219 30.1562 47.4844 28.9844H51.375C51.3125 30.6719 50.8828 32.1562 50.0859 33.4375C49.3047 34.7031 48.2734 35.6953 46.9922 36.4141C45.7266 37.1172 44.3281 37.4688 42.7969 37.4688C41.1562 37.4688 39.7266 37.2031 38.5078 36.6719C37.3047 36.1406 36.3047 35.375 35.5078 34.375C34.7266 33.3594 34.1406 32.1328 33.75 30.6953C33.3594 29.2422 33.1641 27.5938 33.1641 25.75V22.8906C33.1641 21.0469 33.3594 19.4062 33.75 17.9688C34.1406 16.5156 34.7266 15.2891 35.5078 14.2891C36.3047 13.2734 37.3047 12.5 38.5078 11.9688C39.7266 11.4375 41.1562 11.1719 42.7969 11.1719C44.5156 11.1719 46 11.5391 47.25 12.2734C48.5156 12.9922 49.5 14.0391 50.2031 15.4141C50.9219 16.7734 51.3125 18.4219 51.375 20.3594H47.4844C47.4219 19.1094 47.1953 18.0703 46.8047 17.2422C46.4141 16.3984 45.8828 15.7734 45.2109 15.3672C44.5391 14.9453 43.7344 14.7344 42.7969 14.7344C41.7031 14.7344 40.7969 14.9297 40.0781 15.3203C39.375 15.6953 38.8203 16.2422 38.4141 16.9609C38.0078 17.6797 37.7188 18.5391 37.5469 19.5391C37.3906 20.5391 37.3125 21.6562 37.3125 22.8906V25.75C37.3125 26.9844 37.3906 28.1094 37.5469 29.125C37.7188 30.125 38 30.9844 38.3906 31.7031C38.7969 32.4219 39.3594 32.9766 40.0781 33.3672C40.7969 33.7422 41.7031 33.9297 42.7969 33.9297ZM55.3125 25.5391V23.125C55.3125 21.1562 55.5625 19.4297 56.0625 17.9453C56.5625 16.4453 57.2578 15.1953 58.1484 14.1953C59.0391 13.1953 60.0781 12.4453 61.2656 11.9453C62.4531 11.4297 63.7266 11.1719 65.0859 11.1719C66.4766 11.1719 67.7656 11.4297 68.9531 11.9453C70.1406 12.4453 71.1797 13.1953 72.0703 14.1953C72.9766 15.1953 73.6797 16.4453 74.1797 17.9453C74.6797 19.4297 74.9297 21.1562 74.9297 23.125V25.5391C74.9297 27.5078 74.6797 29.2422 74.1797 30.7422C73.6797 32.2266 72.9844 33.4688 72.0938 34.4688C71.2031 35.4688 70.1641 36.2188 68.9766 36.7188C67.7891 37.2188 66.5078 37.4688 65.1328 37.4688C63.7578 37.4688 62.4766 37.2188 61.2891 36.7188C60.1016 36.2188 59.0547 35.4688 58.1484 34.4688C57.2578 33.4688 56.5625 32.2266 56.0625 30.7422C55.5625 29.2422 55.3125 27.5078 55.3125 25.5391ZM59.4609 23.125V25.5391C59.4609 26.9297 59.6016 28.1484 59.8828 29.1953C60.1641 30.2422 60.5625 31.1172 61.0781 31.8203C61.5938 32.5234 62.1953 33.0547 62.8828 33.4141C63.5703 33.7578 64.3203 33.9297 65.1328 33.9297C66.0703 33.9297 66.8906 33.7578 67.5938 33.4141C68.3125 33.0547 68.9062 32.5234 69.375 31.8203C69.8438 31.1172 70.1953 30.2422 70.4297 29.1953C70.6641 28.1484 70.7812 26.9297 70.7812 25.5391V23.125C70.7812 21.7344 70.6406 20.5234 70.3594 19.4922C70.0781 18.4453 69.6797 17.5703 69.1641 16.8672C68.6484 16.1484 68.0391 15.6172 67.3359 15.2734C66.6484 14.9141 65.8984 14.7344 65.0859 14.7344C64.2891 14.7344 63.5469 14.9141 62.8594 15.2734C62.1719 15.6172 61.5703 16.1484 61.0547 16.8672C60.5547 17.5703 60.1641 18.4453 59.8828 19.4922C59.6016 20.5234 59.4609 21.7344 59.4609 23.125ZM84.4219 15.625V37H80.2734V11.6406H84.2812L84.4219 15.625ZM90.7266 11.5L90.75 15.5312C90.4062 15.4531 90.0938 15.4062 89.8125 15.3906C89.5469 15.3594 89.2344 15.3438 88.875 15.3438C88.0938 15.3438 87.4062 15.5 86.8125 15.8125C86.2344 16.125 85.7344 16.5625 85.3125 17.125C84.8906 17.6875 84.5547 18.3594 84.3047 19.1406C84.0547 19.9062 83.8828 20.75 83.7891 21.6719L82.7109 22.375C82.7109 20.8438 82.8281 19.4062 83.0625 18.0625C83.3125 16.7188 83.6953 15.5312 84.2109 14.5C84.7266 13.4531 85.3828 12.6406 86.1797 12.0625C86.9922 11.4688 87.9609 11.1719 89.0859 11.1719C89.3359 11.1719 89.6406 11.2109 90 11.2891C90.375 11.3516 90.6172 11.4219 90.7266 11.5ZM103.5 37.4688C101.984 37.4688 100.617 37.2422 99.3984 36.7891C98.1797 36.3359 97.1406 35.6484 96.2812 34.7266C95.4219 33.7891 94.7656 32.6094 94.3125 31.1875C93.8594 29.7656 93.6328 28.0859 93.6328 26.1484V23.2891C93.6328 21.0547 93.8906 19.1641 94.4062 17.6172C94.9375 16.0703 95.6484 14.8281 96.5391 13.8906C97.4297 12.9375 98.4375 12.25 99.5625 11.8281C100.688 11.3906 101.844 11.1719 103.031 11.1719C104.625 11.1719 105.984 11.4297 107.109 11.9453C108.234 12.4609 109.148 13.2266 109.852 14.2422C110.555 15.2578 111.07 16.5078 111.398 17.9922C111.742 19.4766 111.914 21.1875 111.914 23.125V25.5391H96.0703V22H107.766V21.4141C107.703 20.1016 107.523 18.9453 107.227 17.9453C106.945 16.9453 106.477 16.1641 105.82 15.6016C105.164 15.0234 104.234 14.7344 103.031 14.7344C102.266 14.7344 101.555 14.8672 100.898 15.1328C100.258 15.3828 99.7031 15.8281 99.2344 16.4688C98.7812 17.0938 98.4219 17.9609 98.1562 19.0703C97.9062 20.1797 97.7812 21.5859 97.7812 23.2891V26.1484C97.7812 27.5078 97.9062 28.6797 98.1562 29.6641C98.4219 30.6328 98.8047 31.4375 99.3047 32.0781C99.8203 32.7031 100.445 33.1719 101.18 33.4844C101.93 33.7812 102.781 33.9297 103.734 33.9297C105.125 33.9297 106.273 33.6641 107.18 33.1328C108.086 32.5859 108.875 31.8906 109.547 31.0469L111.727 33.6484C111.273 34.2891 110.68 34.9062 109.945 35.5C109.227 36.0781 108.336 36.5547 107.273 36.9297C106.227 37.2891 104.969 37.4688 103.5 37.4688ZM36.0234 40.875V75H31.7109V40.875H36.0234ZM53.1797 40.875L41.4375 56.7891L34.5703 65.0625L33.7969 60.2344L38.8359 53.625L48.0234 40.875H53.1797ZM48.8906 75L38.8359 58.3594L41.3906 54.7734L54.0234 75H48.8906ZM65.8125 75.4688C64.2969 75.4688 62.9297 75.2422 61.7109 74.7891C60.4922 74.3359 59.4531 73.6484 58.5938 72.7266C57.7344 71.7891 57.0781 70.6094 56.625 69.1875C56.1719 67.7656 55.9453 66.0859 55.9453 64.1484V61.2891C55.9453 59.0547 56.2031 57.1641 56.7188 55.6172C57.25 54.0703 57.9609 52.8281 58.8516 51.8906C59.7422 50.9375 60.75 50.25 61.875 49.8281C63 49.3906 64.1562 49.1719 65.3438 49.1719C66.9375 49.1719 68.2969 49.4297 69.4219 49.9453C70.5469 50.4609 71.4609 51.2266 72.1641 52.2422C72.8672 53.2578 73.3828 54.5078 73.7109 55.9922C74.0547 57.4766 74.2266 59.1875 74.2266 61.125V63.5391H58.3828V60H70.0781V59.4141C70.0156 58.1016 69.8359 56.9453 69.5391 55.9453C69.2578 54.9453 68.7891 54.1641 68.1328 53.6016C67.4766 53.0234 66.5469 52.7344 65.3438 52.7344C64.5781 52.7344 63.8672 52.8672 63.2109 53.1328C62.5703 53.3828 62.0156 53.8281 61.5469 54.4688C61.0938 55.0938 60.7344 55.9609 60.4688 57.0703C60.2188 58.1797 60.0938 59.5859 60.0938 61.2891V64.1484C60.0938 65.5078 60.2188 66.6797 60.4688 67.6641C60.7344 68.6328 61.1172 69.4375 61.6172 70.0781C62.1328 70.7031 62.7578 71.1719 63.4922 71.4844C64.2422 71.7812 65.0938 71.9297 66.0469 71.9297C67.4375 71.9297 68.5859 71.6641 69.4922 71.1328C70.3984 70.5859 71.1875 69.8906 71.8594 69.0469L74.0391 71.6484C73.5859 72.2891 72.9922 72.9062 72.2578 73.5C71.5391 74.0781 70.6484 74.5547 69.5859 74.9297C68.5391 75.2891 67.2812 75.4688 65.8125 75.4688ZM88.3125 75.4688C86.7969 75.4688 85.4297 75.2422 84.2109 74.7891C82.9922 74.3359 81.9531 73.6484 81.0938 72.7266C80.2344 71.7891 79.5781 70.6094 79.125 69.1875C78.6719 67.7656 78.4453 66.0859 78.4453 64.1484V61.2891C78.4453 59.0547 78.7031 57.1641 79.2188 55.6172C79.75 54.0703 80.4609 52.8281 81.3516 51.8906C82.2422 50.9375 83.25 50.25 84.375 49.8281C85.5 49.3906 86.6562 49.1719 87.8438 49.1719C89.4375 49.1719 90.7969 49.4297 91.9219 49.9453C93.0469 50.4609 93.9609 51.2266 94.6641 52.2422C95.3672 53.2578 95.8828 54.5078 96.2109 55.9922C96.5547 57.4766 96.7266 59.1875 96.7266 61.125V63.5391H80.8828V60H92.5781V59.4141C92.5156 58.1016 92.3359 56.9453 92.0391 55.9453C91.7578 54.9453 91.2891 54.1641 90.6328 53.6016C89.9766 53.0234 89.0469 52.7344 87.8438 52.7344C87.0781 52.7344 86.3672 52.8672 85.7109 53.1328C85.0703 53.3828 84.5156 53.8281 84.0469 54.4688C83.5938 55.0938 83.2344 55.9609 82.9688 57.0703C82.7188 58.1797 82.5938 59.5859 82.5938 61.2891V64.1484C82.5938 65.5078 82.7188 66.6797 82.9688 67.6641C83.2344 68.6328 83.6172 69.4375 84.1172 70.0781C84.6328 70.7031 85.2578 71.1719 85.9922 71.4844C86.7422 71.7812 87.5938 71.9297 88.5469 71.9297C89.9375 71.9297 91.0859 71.6641 91.9922 71.1328C92.8984 70.5859 93.6875 69.8906 94.3594 69.0469L96.5391 71.6484C96.0859 72.2891 95.4922 72.9062 94.7578 73.5C94.0391 74.0781 93.1484 74.5547 92.0859 74.9297C91.0391 75.2891 89.7812 75.4688 88.3125 75.4688ZM105.891 54.5156V84.75H101.742V49.6406H105.516L105.891 54.5156ZM120.07 61.1719V63.5391C120.07 65.5391 119.883 67.2891 119.508 68.7891C119.148 70.2734 118.609 71.5156 117.891 72.5156C117.188 73.5 116.32 74.2422 115.289 74.7422C114.258 75.2266 113.078 75.4688 111.75 75.4688C110.422 75.4688 109.266 75.2188 108.281 74.7188C107.312 74.2031 106.492 73.4609 105.82 72.4922C105.164 71.5234 104.641 70.3594 104.25 69C103.875 67.625 103.617 66.0859 103.477 64.3828V60.7734C103.617 58.9766 103.875 57.3672 104.25 55.9453C104.625 54.5078 105.141 53.2891 105.797 52.2891C106.469 51.2734 107.289 50.5 108.258 49.9688C109.242 49.4375 110.391 49.1719 111.703 49.1719C113.062 49.1719 114.258 49.4062 115.289 49.875C116.336 50.3438 117.211 51.0703 117.914 52.0547C118.633 53.0234 119.172 54.2656 119.531 55.7812C119.891 57.2812 120.07 59.0781 120.07 61.1719ZM115.922 63.5391V61.1719C115.922 59.7656 115.812 58.5391 115.594 57.4922C115.391 56.4453 115.062 55.5781 114.609 54.8906C114.156 54.2031 113.586 53.6875 112.898 53.3438C112.211 53 111.383 52.8281 110.414 52.8281C109.586 52.8281 108.852 53 108.211 53.3438C107.586 53.6875 107.047 54.1562 106.594 54.75C106.141 55.3281 105.766 55.9922 105.469 56.7422C105.172 57.4766 104.953 58.2422 104.812 59.0391V66.1406C105.078 67.1406 105.43 68.0859 105.867 68.9766C106.305 69.8516 106.891 70.5625 107.625 71.1094C108.375 71.6562 109.32 71.9297 110.461 71.9297C111.414 71.9297 112.234 71.7578 112.922 71.4141C113.609 71.0703 114.172 70.5547 114.609 69.8672C115.062 69.1641 115.391 68.2891 115.594 67.2422C115.812 66.1797 115.922 64.9453 115.922 63.5391ZM134.484 75.4688C132.969 75.4688 131.602 75.2422 130.383 74.7891C129.164 74.3359 128.125 73.6484 127.266 72.7266C126.406 71.7891 125.75 70.6094 125.297 69.1875C124.844 67.7656 124.617 66.0859 124.617 64.1484V61.2891C124.617 59.0547 124.875 57.1641 125.391 55.6172C125.922 54.0703 126.633 52.8281 127.523 51.8906C128.414 50.9375 129.422 50.25 130.547 49.8281C131.672 49.3906 132.828 49.1719 134.016 49.1719C135.609 49.1719 136.969 49.4297 138.094 49.9453C139.219 50.4609 140.133 51.2266 140.836 52.2422C141.539 53.2578 142.055 54.5078 142.383 55.9922C142.727 57.4766 142.898 59.1875 142.898 61.125V63.5391H127.055V60H138.75V59.4141C138.688 58.1016 138.508 56.9453 138.211 55.9453C137.93 54.9453 137.461 54.1641 136.805 53.6016C136.148 53.0234 135.219 52.7344 134.016 52.7344C133.25 52.7344 132.539 52.8672 131.883 53.1328C131.242 53.3828 130.688 53.8281 130.219 54.4688C129.766 55.0938 129.406 55.9609 129.141 57.0703C128.891 58.1797 128.766 59.5859 128.766 61.2891V64.1484C128.766 65.5078 128.891 66.6797 129.141 67.6641C129.406 68.6328 129.789 69.4375 130.289 70.0781C130.805 70.7031 131.43 71.1719 132.164 71.4844C132.914 71.7812 133.766 71.9297 134.719 71.9297C136.109 71.9297 137.258 71.6641 138.164 71.1328C139.07 70.5859 139.859 69.8906 140.531 69.0469L142.711 71.6484C142.258 72.2891 141.664 72.9062 140.93 73.5C140.211 74.0781 139.32 74.5547 138.258 74.9297C137.211 75.2891 135.953 75.4688 134.484 75.4688ZM152.062 53.625V75H147.914V49.6406H151.922L152.062 53.625ZM158.367 49.5L158.391 53.5312C158.047 53.4531 157.734 53.4062 157.453 53.3906C157.188 53.3594 156.875 53.3438 156.516 53.3438C155.734 53.3438 155.047 53.5 154.453 53.8125C153.875 54.125 153.375 54.5625 152.953 55.125C152.531 55.6875 152.195 56.3594 151.945 57.1406C151.695 57.9062 151.523 58.75 151.43 59.6719L150.352 60.375C150.352 58.8438 150.469 57.4062 150.703 56.0625C150.953 54.7188 151.336 53.5312 151.852 52.5C152.367 51.4531 153.023 50.6406 153.82 50.0625C154.633 49.4688 155.602 49.1719 156.727 49.1719C156.977 49.1719 157.281 49.2109 157.641 49.2891C158.016 49.3516 158.258 49.4219 158.367 49.5Z" fill="url(#paint0_linear_8_10)" fill-opacity="0.67"/>
<path d="M28.2727 39H56.6623V77H28.2727V39Z" stroke="url(#paint1_linear_8_10)" stroke-opacity="0.67" stroke-width="2"/>
<path d="M5 1H33V39H5V1Z" stroke="url(#paint2_linear_8_10)" stroke-opacity="0.67" stroke-width="2"/>
</g>
<defs>
<filter id="filter0_d_8_10" x="0" y="0" width="162.391" height="92.75" filterUnits="userSpaceOnUse" color-interpolation-filters="sRGB">
<feFlood flood-opacity="0" result="BackgroundImageFix"/>
<feColorMatrix in="SourceAlpha" type="matrix" values="0 0 0 0 0 0 0 0 0 0 0 0 0 0 0 0 0 0 127 0" result="hardAlpha"/>
<feOffset dy="4"/>
<feGaussianBlur stdDeviation="2"/>
<feComposite in2="hardAlpha" operator="out"/>
<feColorMatrix type="matrix" values="0 0 0 0 0 0 0 0 0 0 0 0 0 0 0 0 0 0 0.25 0"/>
<feBlend mode="normal" in2="BackgroundImageFix" result="effect1_dropShadow_8_10"/>
<feBlend mode="normal" in="SourceGraphic" in2="effect1_dropShadow_8_10" result="shape"/>
</filter>
<linearGradient id="paint0_linear_8_10" x1="84" y1="2" x2="84" y2="85" gradientUnits="userSpaceOnUse">
<stop offset="0.692708" stop-color="#B9B9BC"/>
<stop offset="1" stop-color="#454558" stop-opacity="0"/>
</linearGradient>
<linearGradient id="paint1_linear_8_10" x1="42.4675" y1="38" x2="42.4675" y2="78" gradientUnits="userSpaceOnUse">
<stop offset="0.692708" stop-color="#B9B9BC"/>
<stop offset="1" stop-color="#454558" stop-opacity="0"/>
</linearGradient>
<linearGradient id="paint2_linear_8_10" x1="19" y1="0" x2="19" y2="40" gradientUnits="userSpaceOnUse">
<stop offset="0.692708" stop-color="#B9B9BC"/>
<stop offset="1" stop-color="#454558" stop-opacity="0"/>
</linearGradient>
</defs>
</svg>
